<?xml version="1.0" encoding="UTF-8"?>
<!DOCTYPE svg PUBLIC "-//W3C//DTD SVG 1.1//EN" "http://www.w3.org/Graphics/SVG/1.1/DTD/svg11.dtd">
<svg xmlns="http://www.w3.org/2000/svg" version="1.1" width="328px" height="328px" style="shape-rendering:geometricPrecision; text-rendering:geometricPrecision; image-rendering:optimizeQuality; fill-rule:evenodd; clip-rule:evenodd" xmlns:xlink="http://www.w3.org/1999/xlink">
<g><path style="opacity:1" fill="#fefefe" d="M -0.5,-0.5 C 108.833,-0.5 218.167,-0.5 327.5,-0.5C 327.5,108.833 327.5,218.167 327.5,327.5C 218.167,327.5 108.833,327.5 -0.5,327.5C -0.5,218.167 -0.5,108.833 -0.5,-0.5 Z"/></g>
<g><path style="opacity:1" fill="#0d0506" d="M 189.5,12.5 C 190.978,12.238 192.311,12.5713 193.5,13.5C 192.167,15.5 192.167,17.5 193.5,19.5C 187.81,21.8538 184.81,26.1871 184.5,32.5C 186.255,45.5196 192.255,56.0196 202.5,64C 209.982,64.9362 216.982,63.4362 223.5,59.5C 223.833,59.8333 224.167,60.1667 224.5,60.5C 223.959,62.5352 223.292,64.5352 222.5,66.5C 217.054,65.0634 213.22,67.0634 211,72.5C 206.5,82.1858 205.5,92.1858 208,102.5C 208.785,104.286 209.951,105.786 211.5,107C 217.991,110.078 224.325,113.412 230.5,117C 227.574,117.218 224.74,117.718 222,118.5C 220.136,115.793 217.636,114.959 214.5,116C 199.099,127.063 186.932,140.896 178,157.5C 176,161.5 176,165.5 178,169.5C 180.285,171.907 182.451,174.407 184.5,177C 181.672,177.969 179.338,177.303 177.5,175C 164.298,172.53 160.464,177.363 166,189.5C 168.818,191.381 170.652,194.048 171.5,197.5C 170.998,198.521 170.332,198.688 169.5,198C 165.143,193.311 159.977,189.811 154,187.5C 149.623,190.429 147.79,194.596 148.5,200C 148.091,204.082 149.091,207.749 151.5,211C 154.423,212.71 157.423,212.877 160.5,211.5C 161.604,213.389 162.937,215.055 164.5,216.5C 168.841,213.609 169.841,214.276 167.5,218.5C 167.833,219.5 168.5,220.167 169.5,220.5C 171.001,219.248 172.668,218.248 174.5,217.5C 174.723,218.967 175.056,220.467 175.5,222C 177.833,221.667 180.167,221.333 182.5,221C 183.11,222.947 183.943,224.781 185,226.5C 186.584,225.139 188.418,224.472 190.5,224.5C 190.116,226.665 190.783,228.332 192.5,229.5C 195.147,226.82 196.48,227.487 196.5,231.5C 198.262,231.357 199.929,231.691 201.5,232.5C 206.438,235.467 210.771,239.133 214.5,243.5C 215.689,244.429 217.022,244.762 218.5,244.5C 224.613,254.439 232.946,262.272 243.5,268C 254.825,274.487 266.825,276.154 279.5,273C 282.952,271.209 286.118,269.042 289,266.5C 293.493,267.63 297.659,267.63 301.5,266.5C 288.175,277.358 273.175,280.525 256.5,276C 248.529,273.787 240.862,270.787 233.5,267C 222.22,259.387 211.22,251.387 200.5,243C 197.048,241.774 193.715,240.274 190.5,238.5C 187.7,239.646 184.867,239.646 182,238.5C 181.167,238.833 180.333,239.167 179.5,239.5C 183.394,241.864 187.561,243.531 192,244.5C 194.29,251.081 197.624,257.081 202,262.5C 203.214,267.114 204.214,271.78 205,276.5C 207.116,277.69 209.116,279.023 211,280.5C 211.965,278.74 213.132,278.406 214.5,279.5C 213.423,281.729 212.756,284.063 212.5,286.5C 215.049,286.559 217.049,285.559 218.5,283.5C 219.192,285.335 218.858,287.168 217.5,289C 219.657,289.078 221.657,289.245 223.5,289.5C 222.289,290.874 221.289,292.374 220.5,294C 220.905,294.945 221.572,295.612 222.5,296C 221.391,296.638 220.225,297.138 219,297.5C 215.67,296.023 212.17,295.189 208.5,295C 204.667,290.5 200.5,286.333 196,282.5C 195.194,279.554 193.861,276.888 192,274.5C 187.225,270.729 182.725,266.562 178.5,262C 174.641,259.65 170.641,258.483 166.5,258.5C 165.808,259.025 165.308,259.692 165,260.5C 163.102,257.87 161.269,257.537 159.5,259.5C 158.281,258.737 157.281,257.737 156.5,256.5C 155.833,257.5 155.167,258.5 154.5,259.5C 150.874,253.89 149.207,254.223 149.5,260.5C 145.806,255.625 142.473,250.458 139.5,245C 131.608,243.863 123.775,242.363 116,240.5C 101.68,235.513 92.013,225.846 87,211.5C 88.0745,200.886 88.4079,190.219 88,179.5C 85.5334,168.536 79.0334,161.203 68.5,157.5C 58.3608,159.447 55.3608,165.113 59.5,174.5C 58.6011,179.15 58.4344,183.817 59,188.5C 63.6894,192.666 63.1894,193.332 57.5,190.5C 56.6919,190.808 56.0253,191.308 55.5,192C 56.5505,193.385 57.8839,194.385 59.5,195C 55.458,195.662 52.1246,194.495 49.5,191.5C 51.6369,189.764 52.3036,187.764 51.5,185.5C 50.8333,186.5 50.1667,187.5 49.5,188.5C 49.1667,188.167 48.8333,187.833 48.5,187.5C 50.051,184.641 51.051,181.641 51.5,178.5C 46.9754,178.262 43.3087,179.929 40.5,183.5C 41.8334,184.62 42.3334,185.953 42,187.5C 40.6667,186.167 39.3333,184.833 38,183.5C 35.1726,185.254 35.0059,187.088 37.5,189C 30.3039,189.131 27.4706,185.631 29,178.5C 34.8506,176.645 37.5173,172.645 37,166.5C 39,164.5 41,162.5 43,160.5C 43.6869,158.432 43.5202,156.432 42.5,154.5C 44.326,154.08 46.326,154.08 48.5,154.5C 47.361,151.575 46.861,148.575 47,145.5C 47.3333,145.167 47.6667,144.833 48,144.5C 49.2635,146.607 51.0968,147.607 53.5,147.5C 52.828,144.092 53.828,141.425 56.5,139.5C 57.1667,140.5 57.8333,141.5 58.5,142.5C 60.1219,138.496 62.4553,137.829 65.5,140.5C 67.0712,138.585 69.0712,137.585 71.5,137.5C 71.3505,138.552 71.5172,139.552 72,140.5C 73.2635,138.393 75.0968,137.393 77.5,137.5C 77.2787,141.795 78.6121,142.462 81.5,139.5C 82.4287,140.689 82.762,142.022 82.5,143.5C 86.3507,145.129 90.3507,146.629 94.5,148C 93.1667,150 93.1667,152 94.5,154C 96.8098,154.497 99.1432,154.663 101.5,154.5C 99.8539,157.895 100.187,161.061 102.5,164C 106.833,164.667 111.167,164.667 115.5,164C 116.573,162.687 117.24,161.187 117.5,159.5C 115.013,151.902 113.179,144.235 112,136.5C 110.382,131.584 107.549,127.584 103.5,124.5C 102.167,122.167 102.167,119.833 103.5,117.5C 110.145,122.23 117.145,122.73 124.5,119C 125.46,117.581 126.293,116.081 127,114.5C 127.155,116.856 127.155,119.189 127,121.5C 130.419,124.751 134.253,127.418 138.5,129.5C 139.662,124.869 139.828,120.202 139,115.5C 138.365,114.034 137.531,112.7 136.5,111.5C 138.608,103.998 136.942,97.4979 131.5,92C 145.09,79.7455 157.257,66.2455 168,51.5C 174.159,37.8677 181.325,24.8677 189.5,12.5 Z"/></g>
<g><path style="opacity:1" fill="#efeeed" d="M 170.5,244.5 C 176.063,247.2 181.23,250.533 186,254.5C 187.358,256.859 188.358,259.193 189,261.5C 185.117,257.95 180.951,254.783 176.5,252C 173.882,249.894 171.882,247.394 170.5,244.5 Z"/></g>
</svg>
